<svg width="28" height="28" viewBox="0 0 28 28" fill="none" xmlns="http://www.w3.org/2000/svg">
<path fill-rule="evenodd" clip-rule="evenodd" d="M15.2901 25.6667H12.7093C8.68827 25.6667 6.67778 25.6667 5.30687 24.4863C3.93596 23.3058 3.65164 21.3298 3.08299 17.3778L2.75776 15.1176C2.31507 12.041 2.09373 10.5027 2.72427 9.18748C3.35481 7.87224 4.69689 7.07277 7.38107 5.47382L8.99672 4.51139C11.4342 3.05938 12.653 2.33337 13.9997 2.33337C15.3464 2.33337 16.5651 3.05938 19.0026 4.51139L20.6183 5.47382C23.3025 7.07277 24.6445 7.87224 25.2751 9.18748C25.9056 10.5027 25.6843 12.041 25.2416 15.1176L24.9164 17.3778C24.3477 21.3298 24.0634 23.3058 22.6925 24.4863C21.3216 25.6667 19.3111 25.6667 15.2901 25.6667ZM9.79684 18.1454C10.0846 17.7572 10.6326 17.6757 11.0208 17.9635C11.8706 18.5934 12.8962 18.9581 13.9998 18.9581C15.1033 18.9581 16.129 18.5934 16.9787 17.9635C17.367 17.6757 17.915 17.7572 18.2027 18.1454C18.4905 18.5336 18.4091 19.0816 18.0208 19.3694C16.8864 20.2103 15.4989 20.7081 13.9998 20.7081C12.5007 20.7081 11.1132 20.2103 9.97874 19.3694C9.59052 19.0816 9.50908 18.5336 9.79684 18.1454Z" fill="#003F66"/>
</svg>
